HIERARCHY
ROOT Hips
{
	OFFSET 0.00000 0.00000 0.00000
	CHANNELS 6 Xposition Yposition Zposition Zrotation Yrotation Xrotation 
	JOINT LHipJoint
	{
		OFFSET 0 0 0
		CHANNELS 3 Zrotation Yrotation Xrotation
		JOINT LeftUpLeg
		{
			OFFSET 1.26600 -1.82114 0.91038
			CHANNELS 3 Zrotation Yrotation Xrotation
			JOINT LeftLeg
			{
				OFFSET 2.50076 -6.87080 0.00000
				CHANNELS 3 Zrotation Yrotation Xrotation
				JOINT LeftFoot
				{
					OFFSET 2.57364 -7.07102 0.00000
					CHANNELS 3 Zrotation Yrotation Xrotation
					JOINT LeftToeBase
					{
						OFFSET 0.13572 -0.37290 1.97004
						CHANNELS 3 Zrotation Yrotation Xrotation
						End Site
						{
							OFFSET 0.00000 -0.00000 1.01383
						}
					}
				}
			}
		}
	}
	JOINT RHipJoint
	{
		OFFSET 0 0 0
		CHANNELS 3 Zrotation Yrotation Xrotation
		JOINT RightUpLeg
		{
			OFFSET -1.20803 -1.82114 0.91038
			CHANNELS 3 Zrotation Yrotation Xrotation
			JOINT RightLeg
			{
				OFFSET -2.54916 -7.00377 0.00000
				CHANNELS 3 Zrotation Yrotation Xrotation
				JOINT RightFoot
				{
					OFFSET -2.56374 -7.04382 0.00000
					CHANNELS 3 Zrotation Yrotation Xrotation
					JOINT RightToeBase
					{
						OFFSET -0.23520 -0.64621 2.09921
						CHANNELS 3 Zrotation Yrotation Xrotation
						End Site
						{
							OFFSET -0.00000 -0.00000 1.10065
						}
					}
				}
			}
		}
	}
	JOINT LowerBack
	{
		OFFSET 0 0 0
		CHANNELS 3 Zrotation Yrotation Xrotation
		JOINT Spine
		{
			OFFSET 0.05492 2.10797 -0.12074
			CHANNELS 3 Zrotation Yrotation Xrotation
			JOINT Spine1
			{
				OFFSET 0.04577 2.11592 -0.04483
				CHANNELS 3 Zrotation Yrotation Xrotation
				JOINT Neck
				{
					OFFSET 0 0 0
					CHANNELS 3 Zrotation Yrotation Xrotation
					JOINT Neck1
					{
						OFFSET -0.10759 1.80167 0.15770
						CHANNELS 3 Zrotation Yrotation Xrotation
						JOINT Head
						{
							OFFSET 0.09237 1.77509 -0.40848
							CHANNELS 3 Zrotation Yrotation Xrotation
							End Site
							{
								OFFSET 0.03805 1.84093 -0.15754
							}
						}
					}
				}
				JOINT LeftShoulder
				{
					OFFSET 0 0 0
					CHANNELS 3 Zrotation Yrotation Xrotation
					JOINT LeftArm
					{
						OFFSET 3.42372 1.09575 -0.28209
						CHANNELS 3 Zrotation Yrotation Xrotation
						JOINT LeftForeArm
						{
							OFFSET 4.95681 -0.00000 0.00000
							CHANNELS 3 Zrotation Yrotation Xrotation
							JOINT LeftHand
							{
								OFFSET 3.40915 -0.00000 0.00000
								CHANNELS 3 Zrotation Yrotation Xrotation
								JOINT LeftFingerBase
								{
									OFFSET 0 0 0
									CHANNELS 3 Zrotation Yrotation Xrotation
									JOINT LeftHandIndex1
									{
										OFFSET 0.61640 -0.00000 0.00000
										CHANNELS 3 Zrotation Yrotation Xrotation
										End Site
										{
											OFFSET 0.49696 -0.00000 0.00000
										}
									}
								}
								JOINT LThumb
								{
									OFFSET 0 0 0
									CHANNELS 3 Zrotation Yrotation Xrotation
									End Site
									{
										OFFSET 0.50455 -0.00000 0.50455
									}
								}
							}
						}
					}
				}
				JOINT RightShoulder
				{
					OFFSET 0 0 0
					CHANNELS 3 Zrotation Yrotation Xrotation
					JOINT RightArm
					{
						OFFSET -3.24731 1.15872 -0.32221
						CHANNELS 3 Zrotation Yrotation Xrotation
						JOINT RightForeArm
						{
							OFFSET -5.35200 -0.00000 0.00000
							CHANNELS 3 Zrotation Yrotation Xrotation
							JOINT RightHand
							{
								OFFSET -3.43721 -0.00000 -0.00000
								CHANNELS 3 Zrotation Yrotation Xrotation
								JOINT RightFingerBase
								{
									OFFSET 0 0 0
									CHANNELS 3 Zrotation Yrotation Xrotation
									JOINT RightHandIndex1
									{
										OFFSET -0.72009 -0.00000 0.00000
										CHANNELS 3 Zrotation Yrotation Xrotation
										End Site
										{
											OFFSET -0.58056 -0.00000 0.00000
										}
									}
								}
								JOINT RThumb
								{
									OFFSET 0 0 0
									CHANNELS 3 Zrotation Yrotation Xrotation
									End Site
									{
										OFFSET -0.58942 -0.00000 0.58942
									}
								}
							}
						}
					}
				}
			}
		}
	}
}
MOTION
Frames: 5
Frame Time: 0.031746
0.00 0.00 0.00 -362.4470 -81.1402 357.0600 0.0000 0.0000 0.0000 -14.9811 0.1229 -6.9355 12.1132 18.4381 66.3472 -2.6961 -31.1724 -3.8590 0.0669 1.6684 4.5901 0.0000 0.0000 0.0000 21.1598 -3.0618 -19.8447 -1.3703 -7.4085 20.9313 -0.9547 -16.9190 19.7260 -0.6851 -5.2918 14.7429 -1.0364 0.8203 7.7280 3.0491 0.8958 4.5548 3.6663 0.3314 0.3114 -11.6128 -3.3177 -10.6727 6.1063 -5.9138 37.8972 3.5969 -3.8778 15.7156 0.0000 -0.0000 0.0000 -85.3251 5.1613 25.9781 23.8075 -34.9601 -7.5960 -0.0000 0.0000 -4.1974 15.6759 18.8707 5.1863 -7.1250 0.0000 -0.0000 -12.2731 49.1294 -1.2671 0.0000 -0.0000 0.0000 85.5812 -5.6708 11.2544 -13.7867 22.4289 -2.7462 0.0000 -0.0000 -6.9015 -18.5065 12.4703 -4.1340 7.1250 -0.0000 -0.0000 6.0635 -16.8989 4.0621
0.00 0.00 0.00 -359.4430 -80.6521 353.6790 0.0000 0.0000 0.0000 -11.0351 1.8922 -7.1003 17.6944 19.8721 83.2450 -3.8714 -34.7034 -0.0944 1.0815 6.6099 18.5646 0.0000 0.0000 0.0000 21.7966 -4.6408 -11.6251 -0.7652 -5.5861 15.5880 -2.7603 -17.3916 30.5932 -1.2870 -7.1887 20.2755 -1.0100 1.1696 4.3149 2.2868 1.4307 3.8460 2.8737 0.6313 1.4513 -11.4730 -3.3267 -10.7889 6.0537 -6.0112 38.6931 3.5482 -3.9474 16.1610 -0.0000 -0.0000 0.0000 -84.7952 8.2931 20.6866 21.2859 -32.1606 -6.2014 -0.0000 0.0000 -3.9073 15.0517 20.7711 5.4477 -7.1250 0.0000 -0.0000 -13.5756 50.9236 -2.0131 -0.0000 -0.0000 0.0000 85.9138 -7.1584 10.8144 -13.0828 21.4085 -2.4834 0.0000 -0.0000 -6.2740 -19.4161 13.0444 -4.5486 7.1250 -0.0000 -0.0000 5.4467 -16.2190 3.7257
0.00 0.00 0.00 -360.9130 -79.4394 354.4720 0.0000 0.0000 0.0000 -8.0002 1.7619 -7.7550 21.2873 19.9602 93.7663 -3.5554 -33.0562 0.9784 0.9418 6.1810 17.3104 0.0000 0.0000 0.0000 21.9205 -4.5126 -7.0017 -1.0599 -6.5456 18.3759 -1.0511 -8.9872 18.4369 -0.0273 -1.0661 2.9307 -1.0871 0.8480 4.2487 2.3187 1.0256 3.2147 2.9572 0.4462 0.8592 -11.6993 -3.3439 -11.4443 6.1330 -5.7799 38.1778 3.6451 -3.8268 16.0378 0.0000 -0.0000 0.0000 -84.9485 10.6054 18.8301 20.5063 -31.2475 -5.7917 -0.0000 0.0000 -4.2744 15.4380 21.8990 5.8807 -7.1250 0.0000 -0.0000 -13.6633 52.1042 -2.4270 0.0000 -0.0000 0.0000 85.5689 -8.9711 12.8775 -13.8607 22.5351 -2.7745 0.0000 -0.0000 -8.2975 -20.4672 11.7568 -4.3489 7.1250 -0.0000 -0.0000 4.6819 -17.4808 3.0697
0.00 0.00 0.00 -368.3540 -79.0294 360.9110 0.0000 0.0000 0.0000 -2.6373 1.6513 -8.3503 24.8004 19.4383 104.1627 -3.9131 -33.6768 3.7104 0.8511 5.8837 16.4475 0.0000 0.0000 0.0000 23.9015 -2.1571 -3.8851 -1.9275 -8.7134 24.9028 -0.0033 -0.4904 -1.3793 -1.7490 -8.3224 23.6978 0.9235 0.8922 6.0112 2.1226 1.2067 2.5324 1.5836 0.5738 -0.7895 -11.2650 -3.6422 -12.4781 6.2007 -6.0779 37.4934 3.5197 -3.8110 15.9600 0.0000 -0.0000 0.0000 -84.5821 12.0071 17.3468 19.3668 -29.8719 -5.2123 -0.0000 0.0000 -4.6010 16.0843 19.8764 5.5990 -7.1250 0.0000 -0.0000 -12.2408 50.1984 -1.5893 0.0000 -0.0000 0.0000 85.9548 -9.1969 13.4004 -13.7082 22.3160 -2.7163 0.0000 -0.0000 -7.7301 -20.2150 12.1808 -4.4426 7.1250 -0.0000 -0.0000 4.8694 -17.0550 3.2389
0.00 0.00 0.00 -401.6940 -81.0070 395.0590 0.0000 0.0000 0.0000 9.7059 8.8160 -13.2721 29.8254 17.5069 119.9295 -2.2289 -26.8247 0.6453 0.2674 3.3266 9.1893 0.0000 0.0000 0.0000 31.6070 0.6939 -2.5426 -2.6723 -10.1446 29.4463 -0.7888 3.7674 -15.9318 -4.0879 -12.2765 36.7173 4.4552 1.4590 6.3830 4.3925 2.2268 1.5011 1.8591 1.0473 -2.0313 -10.2048 -2.7302 -14.0763 4.2178 -4.0776 38.4751 2.8128 -3.0964 16.5180 0.0000 -0.0000 0.0000 -91.8939 8.5272 -1.8253 11.6891 -19.3368 -1.9982 -0.0000 -0.0000 5.2286 21.0157 22.8503 8.4852 -7.1250 0.0000 -0.0000 -8.4674 54.0768 -1.8995 0.0000 -0.0000 0.0000 84.1077 1.1432 -10.3133 -7.9403 13.4560 -0.9382 0.0000 0.0000 11.0376 -18.7636 10.9947 -3.7070 7.1250 -0.0000 -0.0000 5.8630 -18.4191 3.7297
